<svg width="30" height="30" viewBox="0 0 30 30" fill="none" xmlns="http://www.w3.org/2000/svg">
<path fill-rule="evenodd" clip-rule="evenodd" d="M15 0C13.7063 0 11.5444 0.496875 9.51001 1.05C7.42876 1.6125 5.33063 2.27812 4.09688 2.68125C3.58106 2.8516 3.12374 3.164 2.77748 3.58256C2.43122 4.00113 2.21005 4.50889 2.13939 5.0475C1.02189 13.4419 3.61501 19.6631 6.76126 23.7788C8.09596 25.5389 9.68673 27.0892 11.4806 28.3781C12.2044 28.89 12.8756 29.2819 13.4456 29.55C13.9706 29.7975 14.535 30 15 30C15.465 30 16.0275 29.7975 16.5544 29.55C17.2422 29.2173 17.8997 28.8252 18.5194 28.3781C20.3133 27.0892 21.9041 25.5389 23.2388 23.7788C26.385 19.6631 28.9781 13.4419 27.8606 5.0475C27.7903 4.50855 27.5693 4.0004 27.223 3.58147C26.8767 3.16254 26.4192 2.84986 25.9031 2.67938C24.112 2.09252 22.3071 1.54861 20.49 1.04813C18.4556 0.49875 16.2938 0 15 0ZM13.9688 15.9412L13.3125 9.36562C13.2875 9.12908 13.3126 8.88992 13.386 8.66368C13.4594 8.43743 13.5796 8.22915 13.7387 8.05235C13.8979 7.87555 14.0924 7.73418 14.3097 7.6374C14.5269 7.54063 14.7621 7.49062 15 7.49062C15.2379 7.49062 15.4731 7.54063 15.6904 7.6374C15.9077 7.73418 16.1022 7.87555 16.2613 8.05235C16.4204 8.22915 16.5406 8.43743 16.614 8.66368C16.6874 8.88992 16.7125 9.12908 16.6875 9.36562L16.0313 15.9412C16.0092 16.1996 15.891 16.4402 15.7001 16.6156C15.5091 16.7909 15.2593 16.8882 15 16.8882C14.7407 16.8882 14.4909 16.7909 14.3 16.6156C14.109 16.4402 13.9908 16.1996 13.9688 15.9412ZM15.0038 22.5C14.5065 22.5 14.0296 22.3025 13.6779 21.9508C13.3263 21.5992 13.1288 21.1223 13.1288 20.625C13.1288 20.1277 13.3263 19.6508 13.6779 19.2992C14.0296 18.9475 14.5065 18.75 15.0038 18.75C15.501 18.75 15.978 18.9475 16.3296 19.2992C16.6812 19.6508 16.8788 20.1277 16.8788 20.625C16.8788 21.1223 16.6812 21.5992 16.3296 21.9508C15.978 22.3025 15.501 22.5 15.0038 22.5Z" fill="#F32013"/>
</svg>
