<svg width="30" height="30" viewBox="0 0 30 30" fill="none" xmlns="http://www.w3.org/2000/svg">
<path d="M11.1894 27.1661H18.8105C20.4053 27.1661 21.1714 26.6518 21.9873 25.7603L26.6078 20.6373C27.4366 19.7212 27.6498 19.118 27.6498 17.8752V12.1377C27.6498 10.8819 27.4366 10.2916 26.6078 9.37498L21.9873 4.25248C21.1714 3.36052 20.4053 2.83337 18.8105 2.83337H11.1894C9.59462 2.83337 8.84141 3.36052 8.01266 4.25248L3.39212 9.37498C2.56337 10.2911 2.35016 10.8819 2.35016 12.1371V17.8752C2.35016 19.118 2.56337 19.7212 3.39212 20.6373L8.01266 25.7603C8.84141 26.6518 9.59462 27.1661 11.1894 27.1661ZM15.0064 16.8337C14.3411 16.8337 13.9768 16.4443 13.9511 15.7789L13.7759 9.57641C13.7507 8.88534 14.2655 8.39623 14.9936 8.39623C15.6969 8.39623 16.2364 8.8982 16.2118 9.58873L16.0355 15.7789C16.0109 16.4571 15.6337 16.8337 15.0064 16.8337ZM15.0064 21.4543C14.2778 21.4543 13.5873 20.8768 13.5873 20.0984C13.5873 19.32 14.2655 18.7419 15.0064 18.7419C15.735 18.7419 16.4127 19.3071 16.4127 20.0984C16.4127 20.8891 15.7216 21.4543 15.0064 21.4543Z" fill="#F32013"/>
</svg>
